<svg width="25" height="26" viewBox="0 0 25 26" fill="none" xmlns="http://www.w3.org/2000/svg">
<path id="language" d="M12.5 25.4248C10.7759 25.4248 9.1535 25.0955 7.6329 24.437C6.11231 23.7785 4.78927 22.8865 3.66379 21.761C2.53831 20.6355 1.64631 19.3125 0.987787 17.7919C0.329262 16.2713 0 14.6489 0 12.9248C0 11.2007 0.329262 9.5783 0.987787 8.05771C1.64631 6.53711 2.53831 5.21408 3.66379 4.0886C4.78927 2.96312 6.11231 2.07112 7.6329 1.41259C9.1535 0.754067 10.7759 0.424805 12.5 0.424805C14.2241 0.424805 15.8465 0.754067 17.3671 1.41259C18.8877 2.07112 20.2107 2.96312 21.3362 4.0886C22.4617 5.21408 23.3537 6.53711 24.0122 8.05771C24.6707 9.5783 25 11.2007 25 12.9248C25 14.6489 24.6707 16.2713 24.0122 17.7919C23.3537 19.3125 22.4617 20.6355 21.3362 21.761C20.2107 22.8865 18.8877 23.7785 17.3671 24.437C15.8465 25.0955 14.2241 25.4248 12.5 25.4248ZM12.5 24.455C13.41 23.3056 14.1523 22.192 14.727 21.1145C15.3017 20.0369 15.7687 18.8156 16.1279 17.4507H8.87213C9.27921 18.9114 9.75814 20.1806 10.3089 21.2581C10.8597 22.3357 11.59 23.4013 12.5 24.455ZM11.2428 24.3472C10.5005 23.557 9.81801 22.5333 9.1954 21.2761C8.5728 20.0189 8.11782 18.7438 7.83046 17.4507H1.93966C2.80172 19.4143 4.05891 21.0067 5.71121 22.228C7.36351 23.4492 9.20738 24.1556 11.2428 24.3472ZM13.7572 24.3472C15.7926 24.1556 17.6365 23.4492 19.2888 22.228C20.9411 21.0067 22.1983 19.4143 23.0603 17.4507H17.1695C16.7625 18.7677 16.2476 20.0548 15.625 21.312C15.0024 22.5692 14.3798 23.5809 13.7572 24.3472ZM1.54454 16.4449H7.61494C7.49521 15.8223 7.4114 15.2177 7.36351 14.631C7.31561 14.0443 7.29167 13.4756 7.29167 12.9248C7.29167 12.374 7.31561 11.8053 7.36351 11.2186C7.4114 10.6319 7.49521 10.0273 7.61494 9.40469H1.54454C1.37692 9.90756 1.24521 10.4703 1.14943 11.0929C1.05364 11.7155 1.00575 12.3261 1.00575 12.9248C1.00575 13.5235 1.05364 14.1341 1.14943 14.7567C1.24521 15.3793 1.37692 15.942 1.54454 16.4449ZM8.62069 16.4449H16.3793C16.499 15.8223 16.5829 15.2296 16.6307 14.6669C16.6786 14.1042 16.7026 13.5235 16.7026 12.9248C16.7026 12.3261 16.6786 11.7454 16.6307 11.1827C16.5829 10.62 16.499 10.0273 16.3793 9.40469H8.62069C8.50096 10.0273 8.41715 10.62 8.36925 11.1827C8.32136 11.7454 8.29741 12.3261 8.29741 12.9248C8.29741 13.5235 8.32136 14.1042 8.36925 14.6669C8.41715 15.2296 8.50096 15.8223 8.62069 16.4449ZM17.3851 16.4449H23.4555C23.6231 15.942 23.7548 15.3793 23.8506 14.7567C23.9464 14.1341 23.9943 13.5235 23.9943 12.9248C23.9943 12.3261 23.9464 11.7155 23.8506 11.0929C23.7548 10.4703 23.6231 9.90756 23.4555 9.40469H17.3851C17.5048 10.0273 17.5886 10.6319 17.6365 11.2186C17.6844 11.8053 17.7083 12.374 17.7083 12.9248C17.7083 13.4756 17.6844 14.0443 17.6365 14.631C17.5886 15.2177 17.5048 15.8223 17.3851 16.4449ZM17.1695 8.39894H23.0603C22.1743 6.38745 20.9351 4.79502 19.3427 3.62164C17.7502 2.44827 15.8884 1.72988 13.7572 1.46647C14.4995 2.37643 15.17 3.44205 15.7687 4.66331C16.3673 5.88457 16.8343 7.12979 17.1695 8.39894ZM8.87213 8.39894H16.1279C15.7208 6.96216 15.2239 5.67504 14.6372 4.53759C14.0505 3.40014 13.3381 2.35249 12.5 1.39463C11.6619 2.35249 10.9495 3.40014 10.3628 4.53759C9.7761 5.67504 9.27921 6.96216 8.87213 8.39894ZM1.93966 8.39894H7.83046C8.16571 7.12979 8.63266 5.88457 9.23132 4.66331C9.82998 3.44205 10.5005 2.37643 11.2428 1.46647C9.08764 1.72988 7.21983 2.45426 5.63937 3.6396C4.05891 4.82495 2.82567 6.4114 1.93966 8.39894Z" fill="#F3EFF5"/>
</svg>
