<svg width="21" height="21" viewBox="0 0 21 21" fill="none" xmlns="http://www.w3.org/2000/svg">
<path id="Linkedin" d="M17.3616 17.9418H14.4774V13.3001C14.4774 12.1932 14.4548 10.7708 12.9692 10.7708C11.4653 10.7708 11.2361 11.9714 11.2361 13.2182V17.9412H8.3483V8.39709H11.1222V9.69893H11.1593C11.5469 8.94707 12.4896 8.15647 13.896 8.15647C16.8217 8.15647 17.3646 10.132 17.3646 12.7007V17.9412L17.3616 17.9418ZM5.0857 7.09276C4.15519 7.09276 3.40931 6.32091 3.40931 5.37031C3.40931 4.42284 4.15823 3.65224 5.0857 3.65224C6.01317 3.65224 6.76453 4.42284 6.76453 5.37031C6.76453 6.32091 6.01317 7.09276 5.0857 7.09276ZM6.53236 17.9418H3.63844V8.39772H6.53236V17.9418ZM18.8094 0.897949H2.18812C1.39411 0.897949 0.75 1.5423 0.75 2.33978V19.4561C0.75 20.2536 1.39411 20.898 2.18812 20.898H18.8064C19.5992 20.898 20.25 20.2536 20.25 19.4561V2.33978C20.25 1.5423 19.5992 0.897949 18.8064 0.897949L18.8094 0.897949Z" fill="#4BDBAB"/>
</svg>
