<svg width="39" height="41" viewBox="0 0 39 41" fill="none" xmlns="http://www.w3.org/2000/svg">
<g id="Linkedin">
<path id="Linkedin_2" d="M33.2231 34.4856H27.4548V25.2022C27.4548 22.9885 27.4097 20.1436 24.4384 20.1436C21.4305 20.1436 20.9722 22.5448 20.9722 25.0384V34.4844H15.1966V15.3962H20.7443V17.9999H20.8187C21.5938 16.4962 23.4792 14.915 26.2921 14.915C32.1433 14.915 33.2292 18.8661 33.2292 24.0035V34.4844L33.2231 34.4856ZM8.67141 12.7876C6.81037 12.7876 5.31862 11.2439 5.31862 9.34267C5.31862 7.44773 6.81647 5.90653 8.67141 5.90653C10.5263 5.90653 12.0291 7.44773 12.0291 9.34267C12.0291 11.2439 10.5263 12.7876 8.67141 12.7876ZM11.5647 34.4856H5.77687V15.3975H11.5647V34.4856ZM36.1189 0.397949H2.87625C1.28822 0.397949 0 1.68666 0 3.28161V37.5143C0 39.1092 1.28822 40.398 2.87625 40.398H36.1128C37.6984 40.398 39 39.1092 39 37.5143V3.28161C39 1.68666 37.6984 0.397949 36.1128 0.397949L36.1189 0.397949Z" fill="#F3EFF5"/>
</g>
</svg>
