<svg width="66" height="50" viewBox="0 0 66 50" fill="none" xmlns="http://www.w3.org/2000/svg">
<g id="logo vertical">
<path id="path5" d="M18.337 24.9295V23.1739H2.01081V1.63013H0V24.9295H18.337ZM21.9477 24.9295L25.2207 19.0636H42.4325L45.7397 24.9295H47.8532L35.0032 1.63013H32.6842L19.8023 24.9295H21.9477ZM33.8095 3.32132H33.8779L41.5126 17.3058H26.1748L33.8095 3.32132Z" fill="#F3EFF5"/>
<path id="path6" d="M51.5024 0.593143C50.8885 0.593143 50.3909 1.07704 50.3909 1.674V23.9247C50.3909 24.5215 50.8885 25.0056 51.5024 25.0056L64.7322 24.9689C64.7356 24.969 64.739 24.9691 64.7424 24.9691C65.3561 24.9691 65.854 24.4852 65.854 23.8883L65.8913 15.7928C65.8913 15.1956 65.3935 14.7116 64.7798 14.7116L58.888 13.8802V13.8622C58.3695 13.7706 57.9759 13.33 57.9759 12.7993C57.9759 12.2687 58.3695 11.8283 58.888 11.7368V11.7185L64.7798 10.8871C65.3935 10.8871 65.8913 10.403 65.8913 9.8062L65.854 1.674C65.854 1.07704 65.3561 0.593143 64.7424 0.593143H51.5024ZM58.888 3.90284C60.5262 3.90284 61.854 5.19401 61.854 6.78696C61.854 8.38011 60.5262 9.67137 58.888 9.67137C57.2499 9.67137 55.922 8.38011 55.922 6.78696C55.922 5.19401 57.2499 3.90284 58.888 3.90284ZM58.888 15.8644C60.5262 15.8644 61.854 17.1557 61.854 18.7485C61.854 20.3416 60.5262 21.6329 58.888 21.6329C57.2499 21.6329 55.922 20.3416 55.922 18.7485C55.922 17.1557 57.2499 15.8644 58.888 15.8644Z" fill="#F3EFF5"/>
<path id="path26" d="M0 49.4068H2.72672V33.8795C2.72672 33.3242 3.03439 33.025 3.41514 33.025C3.64973 33.025 3.91511 33.139 4.1497 33.4102L7.62444 37.2172H7.66867L11.128 33.3522C11.3626 33.0811 11.6261 32.9539 11.8472 32.9539C12.2433 32.9539 12.5645 33.2662 12.5645 33.8234V49.4068H15.2931V28.5056H12.5222L8.56284 32.853C8.26863 33.1521 7.94749 33.3092 7.63791 33.3092C7.33024 33.3092 7.0091 33.1671 6.7149 32.853L2.72672 28.5056H0V49.4068ZM19.7288 49.4068H33.2625V47.1536H23.7459C22.969 47.1536 22.4556 46.6543 22.4556 45.8989V38.2849C22.4556 37.5164 22.969 37.0171 23.7459 37.0171H33.2625V34.764H23.644C22.9248 34.764 22.4556 34.3357 22.4556 33.6944V31.7834C22.4556 31.157 22.9248 30.7569 23.644 30.7569H33.2625V28.5056H19.7288V49.4068ZM41.4398 32.1256V49.4068H44.1511V32.0414C44.1511 31.286 44.7241 30.7569 45.4722 30.7569H50.2064V28.5056H35.3979V30.7569H40.0168C40.8533 30.7569 41.4398 31.3272 41.4398 32.1256ZM49.2839 49.4068H52.0549L52.774 47.0115C52.8471 46.7983 53.1548 45.97 54.2258 45.97H60.9273C61.9676 45.97 62.2907 46.7983 62.3483 47.0115L63.1118 49.4068H66L59.7389 28.5056H55.3988L49.2839 49.4068ZM54.1086 42.3069L57.143 31.3421C57.1872 31.129 57.291 30.9569 57.5102 30.9569C57.716 30.9569 57.8333 31.129 57.891 31.3421L61.0292 42.3069C61.1023 42.6192 61.2196 43.7037 59.9139 43.7037H55.2085C53.9028 43.7037 54.0201 42.6342 54.1086 42.3069Z" fill="#F3EFF5"/>
</g>
</svg>
