<svg width="150" height="26" viewBox="0 0 150 26" fill="none" xmlns="http://www.w3.org/2000/svg">
<g id="Logo Horizontal">
<path id="path5" d="M18.337 25.424V23.6685H2.01081V2.12463H0V25.424H18.337ZM21.9477 25.424L25.2207 19.5581H42.4325L45.7397 25.424H47.8532L35.0032 2.12463H32.6842L19.8023 25.424H21.9477ZM33.8095 3.81582H33.8779L41.5126 17.8003H26.1748L33.8095 3.81582Z" fill="#F3EFF5"/>
<path id="path6" d="M51.5024 1.08759C50.8885 1.08759 50.3909 1.57149 50.3909 2.16844V24.4191C50.3909 25.0159 50.8885 25.5 51.5024 25.5L64.7322 25.4634C64.7356 25.4634 64.739 25.4636 64.7424 25.4636C65.3561 25.4636 65.854 24.9797 65.854 24.3827L65.8913 16.2872C65.8913 15.6901 65.3935 15.2061 64.7798 15.2061L58.888 14.3746V14.3566C58.3695 14.2651 57.9759 13.8244 57.9759 13.2938C57.9759 12.7632 58.3695 12.3228 58.888 12.2313V12.2129L64.7798 11.3815C65.3935 11.3815 65.8913 10.8974 65.8913 10.3006L65.854 2.16844C65.854 1.57149 65.3561 1.08759 64.7424 1.08759H51.5024ZM58.888 4.39729C60.5262 4.39729 61.854 5.68846 61.854 7.28141C61.854 8.87455 60.5262 10.1658 58.888 10.1658C57.2499 10.1658 55.922 8.87455 55.922 7.28141C55.922 5.68846 57.2499 4.39729 58.888 4.39729ZM58.888 16.3588C60.5262 16.3588 61.854 17.6502 61.854 19.2429C61.854 20.8361 60.5262 22.1273 58.888 22.1273C57.2499 22.1273 55.922 20.8361 55.922 19.2429C55.922 17.6502 57.2499 16.3588 58.888 16.3588Z" fill="#F3EFF5"/>
<path id="path26" d="M71.6616 25.3086H74.8981V6.87859C74.8981 6.21943 75.2633 5.86432 75.7152 5.86432C75.9936 5.86432 76.3086 5.99969 76.5871 6.3215L80.7114 10.8402H80.7639L84.87 6.25271C85.1484 5.93089 85.4611 5.77996 85.7236 5.77996C86.1938 5.77996 86.5749 6.15061 86.5749 6.81201V25.3086H89.8137V0.5H86.5247L81.8252 5.66013C81.476 6.01524 81.0949 6.20167 80.7274 6.20167C80.3622 6.20167 79.981 6.03299 79.6318 5.66013L74.8981 0.5H71.6616V25.3086ZM95.0787 25.3086H111.142V22.6342H99.8466C98.9245 22.6342 98.3151 22.0416 98.3151 21.145V12.1075C98.3151 11.1953 98.9245 10.6028 99.8466 10.6028H111.142V7.92837H99.7257C98.872 7.92837 98.3151 7.42011 98.3151 6.65885V4.39063C98.3151 3.64712 98.872 3.17217 99.7257 3.17217H111.142V0.5H95.0787V25.3086ZM120.848 4.79678V25.3086H124.067V4.69689C124.067 3.80025 124.747 3.17217 125.635 3.17217H131.254V0.5H113.677V3.17217H119.159C120.152 3.17217 120.848 3.84909 120.848 4.79678ZM130.159 25.3086H133.448L134.301 22.4655C134.388 22.2125 134.753 21.2293 136.025 21.2293H143.979C145.214 21.2293 145.597 22.2125 145.666 22.4655L146.572 25.3086H150L142.568 0.5H137.417L130.159 25.3086ZM135.885 16.8815L139.487 3.86685C139.54 3.61383 139.663 3.40963 139.923 3.40963C140.167 3.40963 140.307 3.61383 140.375 3.86685L144.1 16.8815C144.187 17.2521 144.326 18.5394 142.776 18.5394H137.191C135.641 18.5394 135.78 17.2699 135.885 16.8815Z" fill="#F3EFF5"/>
</g>
</svg>
