<svg width="102" height="68" viewBox="0 0 102 68" fill="none" xmlns="http://www.w3.org/2000/svg">
<g id="layer-MC0" opacity="0.7">
<path id="path1" fill-rule="evenodd" clip-rule="evenodd" d="M83.7313 47.7783H84.6885L84.927 47.7779L85.1603 47.7767L85.3888 47.7743L85.6119 47.7717L85.8298 47.7677L86.0429 47.7631L86.2508 47.7573L86.4533 47.7509L86.6508 47.7435L86.8433 47.7358L87.0306 47.7268L87.2129 47.717L87.39 47.7062L87.562 47.6948L87.7289 47.6824L87.8908 47.6694L88.0473 47.6554L88.1989 47.6402L88.3452 47.6244L88.4865 47.608L88.6229 47.5906L88.7538 47.5722L88.8797 47.553L89.0007 47.5334L89.1162 47.5125L89.227 47.4911L89.3323 47.4683L89.4329 47.4453L89.528 47.4211L89.6182 47.3961L89.7032 47.3703L89.7831 47.3437L89.8593 47.3159L89.9329 47.2868L90.0042 47.2568L90.0734 47.2254L90.14 47.1926L90.2039 47.1586L90.2659 47.1236L90.3251 47.0869L90.3818 47.0495L90.4366 47.0103L90.4886 46.9701L90.5386 46.9287L90.5856 46.8857L90.6305 46.8416L90.6731 46.7968L90.7131 46.7502L90.7507 46.7022L90.7859 46.6535L90.8186 46.6031L90.849 46.5515L90.877 46.4989L90.9026 46.445L90.9256 46.3896L90.9464 46.333L90.9646 46.275L90.9806 46.2163L90.9938 46.1561L91.005 46.0943L91.0134 46.0315L91.0196 45.9674L91.0233 45.9022L91.0243 45.8358L91.0232 45.7661L91.0192 45.6973L91.0128 45.6297L91.0036 45.5638L90.9918 45.499L90.9776 45.4356L90.9606 45.3732L90.941 45.3123L90.919 45.2525L90.8942 45.1943L90.8668 45.137L90.8372 45.0812L90.8047 45.0264L90.7695 44.9734L90.7317 44.9215L90.6915 44.8707L90.6487 44.8211L90.6029 44.7727L90.555 44.7257L90.5044 44.6802L90.4508 44.6356L90.395 44.5926L90.3365 44.5508L90.2753 44.5102L90.2117 44.4709L90.1454 44.4331L90.0764 44.3963L90.005 44.3607L89.9309 44.3263L89.8543 44.2935L89.7747 44.262L89.693 44.2316L89.6076 44.2022L89.5174 44.1742L89.4229 44.1464L89.3237 44.1202L89.2198 44.0944L89.1112 44.0698L88.9985 44.0465L88.8809 44.0239L88.7586 44.0019L88.6319 43.9813L88.5005 43.9609L88.3648 43.9423L88.2244 43.9243L88.0793 43.9071L87.9296 43.8911L87.7755 43.8759L87.6167 43.8613L87.4534 43.8482L87.2855 43.8356L87.1132 43.824L86.936 43.8134L86.7545 43.8036L86.5686 43.795L86.3779 43.7872L86.1826 43.7802L85.9829 43.7744L85.7784 43.7692L85.5695 43.765L85.3562 43.7618L85.1381 43.7594L84.9156 43.7584L84.6885 43.7576H83.7313V47.7783ZM98.8825 56.5469H91.5507L83.7313 49.4054V56.5469H77.3765V41.2645H86.4767L86.8125 41.2653L87.1431 41.2685L87.4686 41.2739L87.7886 41.2813L88.1033 41.2907L88.413 41.3023L88.717 41.3161L89.0161 41.3321L89.3095 41.3497L89.5978 41.3695L89.8807 41.3919L90.1584 41.4161L90.4308 41.4427L90.6979 41.4711L90.9594 41.5016L91.2159 41.5344L91.4669 41.569L91.7128 41.6062L91.9533 41.6452L92.1884 41.6862L92.4181 41.7291L92.6424 41.7749L92.8617 41.8221L93.0754 41.8717L93.2837 41.9232L93.487 41.977L93.6845 42.033L93.877 42.0912L94.0641 42.1513L94.2459 42.2133L94.4222 42.2777L94.5931 42.344L94.7594 42.4128L94.9205 42.4836L95.0761 42.5561L95.2268 42.6311L95.3717 42.7085L95.5117 42.7876L95.6464 42.8688L95.7758 42.9528L95.8997 43.0383L96.0184 43.1263L96.132 43.216L96.2401 43.3082L96.3431 43.4026L96.4408 43.4987L96.5332 43.5975L96.6204 43.6982L96.7023 43.801L96.7787 43.9059L96.8501 44.0129L96.916 44.1218L96.9766 44.2332L97.032 44.3467L97.0821 44.4619L97.1271 44.5798L97.1667 44.6998L97.2009 44.8215L97.2299 44.9452L97.2537 45.0714L97.2723 45.1999L97.2857 45.3299L97.2934 45.4626L97.296 45.5969L97.2942 45.6953L97.2889 45.7921L97.2797 45.8886L97.2673 45.9838L97.2509 46.0783L97.2309 46.1721L97.2075 46.2646L97.1805 46.3568L97.1497 46.4473L97.1153 46.5375L97.0773 46.6265L97.036 46.7148L96.9908 46.8018L96.942 46.8885L96.8894 46.9741L96.8335 47.0587L96.7739 47.1422L96.7107 47.225L96.6437 47.3072L96.5732 47.3883L96.4992 47.4683L96.4215 47.5476L96.3401 47.6256L96.2551 47.7034L96.1668 47.7799L96.0744 47.8553L95.9789 47.9303L95.8793 48.004L95.7764 48.077L95.6698 48.1492L95.5595 48.2203L95.4457 48.2907L95.3296 48.3593L95.2114 48.4264L95.0909 48.4916L94.9685 48.5554L94.8438 48.6169L94.717 48.6767L94.5881 48.7349L94.457 48.7907L94.3236 48.8454L94.1885 48.8978L94.0507 48.9486L93.9114 48.9978L93.7697 49.0445L93.6257 49.0899L93.4798 49.1335L93.3317 49.1749L93.1814 49.2149L93.0294 49.253L92.8749 49.289L92.7184 49.3234L92.5596 49.3562L92.3989 49.387L92.2362 49.4158L92.0715 49.4432L91.9043 49.4682L91.7352 49.4915L91.5641 49.5135L91.3908 49.5333L91.2157 49.5513L91.0381 49.5677L90.8586 49.5817L90.6757 49.5947L98.8825 56.5469Z" fill="#F3EFF5"/>
<path id="path2" fill-rule="evenodd" clip-rule="evenodd" d="M54.2534 56.5469V41.2645H61.5654L61.9277 41.2657L62.2839 41.2687L62.6343 41.2743L62.9788 41.2825L63.3172 41.2921L63.6497 41.3047L63.9763 41.3191L64.297 41.3359L64.6114 41.3547L64.9203 41.3761L65.2231 41.3997L65.5198 41.4253L65.8107 41.4531L66.0957 41.4834L66.3748 41.516L66.6477 41.5506L66.9148 41.5878L67.1758 41.6268L67.4307 41.6682L67.68 41.7119L67.9229 41.7579L68.16 41.8061L68.3913 41.8565L68.6166 41.909L68.8355 41.9642L69.0488 42.0216L69.2559 42.081L69.4572 42.1425L69.6521 42.2063L69.8414 42.2727L70.0245 42.3408L70.2016 42.4116L70.3738 42.4846L70.5403 42.5603L70.7012 42.6381L70.8571 42.7185L71.0071 42.8012L71.1516 42.8868L71.2909 42.9742L71.4247 43.0645L71.5528 43.1571L71.6756 43.2518L71.7929 43.3494L71.9047 43.4493L72.011 43.5517L72.112 43.6568L72.2075 43.7638L72.2975 43.8735L72.3818 43.9855L72.4608 44.1002L72.5344 44.217L72.6025 44.3365L72.6651 44.4583L72.7225 44.5828L72.7743 44.7094L72.8204 44.8387L72.8612 44.9702L72.8966 45.1046L72.9266 45.2411L72.951 45.3802L72.9702 45.5216L72.9838 45.6655L72.9917 45.8116L72.9947 45.9604L72.9917 46.0981L72.9836 46.2344L72.97 46.3688L72.9508 46.5011L72.926 46.6315L72.896 46.7604L72.8602 46.8869L72.8192 47.0119L72.7724 47.1348L72.7203 47.2558L72.6627 47.3753L72.5995 47.4929L72.531 47.608L72.4568 47.7218L72.377 47.8337L72.2921 47.9435L72.2013 48.0516L72.1054 48.1578L72.0036 48.2621L71.8965 48.3643L71.7837 48.465L71.6658 48.5638L71.5418 48.6607L71.4129 48.7555L71.2781 48.8488L71.1378 48.9398L70.9921 49.0294L70.8411 49.1171L70.684 49.2027L70.5219 49.2866L70.354 49.3682L70.1809 49.4486L70.0031 49.5259L69.8214 49.6013L69.6351 49.6739L69.445 49.7442L69.2503 49.8118L69.0514 49.8774L68.8483 49.9401L68.6412 50.0003L68.4295 50.0581L68.2136 50.1135L67.9935 50.1666L67.7692 50.217L67.5407 50.265L67.308 50.3108L67.0709 50.3537L66.8296 50.3947L66.5841 50.4325L66.3344 50.4685L66.0805 50.5017L65.8225 50.5325L65.5602 50.561L65.2937 50.5868L65.0228 50.6102L64.748 50.6312L64.4687 50.6496L64.1854 50.6656L63.8978 50.6792L63.6061 50.6902L63.31 50.6988L63.01 50.705L62.7055 50.7086L62.397 50.7102H60.6499V56.5469H54.2534ZM60.6499 48.1632H61.5654L61.7264 48.1626L61.8847 48.161L62.04 48.1582L62.1927 48.1548L62.3427 48.1496L62.4896 48.1438L62.6339 48.1364L62.7755 48.1286L62.914 48.1192L63.0499 48.109L63.1831 48.0976L63.3132 48.0852L63.441 48.0716L63.5657 48.057L63.6875 48.0414L63.8068 48.0246L63.9231 48.0066L64.0367 47.988L64.1474 47.9676L64.2556 47.9469L64.3611 47.9247L64.4635 47.9017L64.5632 47.8771L64.6602 47.8521L64.7544 47.8255L64.8457 47.7981L64.9345 47.7693L65.0202 47.74L65.1034 47.7092L65.1838 47.6776L65.2613 47.6448L65.3361 47.6108L65.4087 47.5752L65.4784 47.5384L65.5462 47.5007L65.6118 47.4617L65.6749 47.4207L65.7357 47.3789L65.7945 47.3359L65.8509 47.2914L65.905 47.2458L65.9568 47.1984L66.0062 47.15L66.0534 47.1004L66.0983 47.0497L66.1411 46.9973L66.1813 46.9439L66.2193 46.8891L66.2551 46.833L66.2884 46.7756L66.3196 46.7166L66.3484 46.6569L66.375 46.5953L66.3994 46.5327L66.4212 46.4691L66.441 46.404L66.4584 46.3372L66.4734 46.2696L66.486 46.2005L66.4964 46.1303L66.5043 46.0583L66.5103 45.9854L66.5137 45.9112L66.5149 45.8358L66.5137 45.7659L66.5103 45.6973L66.5043 45.6297L66.4964 45.5634L66.486 45.498L66.4734 45.4344L66.4584 45.3716L66.441 45.3103L66.4212 45.2501L66.3994 45.1907L66.375 45.133L66.3484 45.0764L66.3194 45.021L66.2884 44.9666L66.2551 44.9137L66.2193 44.8617L66.1813 44.8109L66.1411 44.7613L66.0983 44.713L66.0534 44.666L66.0062 44.62L65.9568 44.575L65.9048 44.5316L65.8509 44.4893L65.7945 44.4479L65.7357 44.4079L65.6749 44.3689L65.6116 44.3315L65.5462 44.2947L65.4784 44.2596L65.4087 44.2252L65.3361 44.1924L65.2613 44.1604L65.1838 44.1296L65.1032 44.0994L65.0202 44.071L64.9345 44.0429L64.8457 44.0163L64.7542 43.9905L64.6602 43.9659L64.5632 43.9421L64.4635 43.9191L64.3611 43.8977L64.2556 43.8769L64.1474 43.8573L64.0367 43.8388L63.9231 43.8212L63.8068 43.8044L63.6875 43.7888L63.5655 43.7742L63.441 43.7606L63.3132 43.7482L63.1831 43.7364L63.0499 43.7258L62.914 43.7164L62.7755 43.7078L62.6339 43.7004L62.4896 43.6938L62.3427 43.6884L62.1927 43.6836L62.04 43.6802L61.8847 43.6778L61.7264 43.6762L61.5654 43.6758H60.6499V48.1632Z" fill="#F3EFF5"/>
<path id="path3" fill-rule="evenodd" clip-rule="evenodd" d="M32.5029 56.5469V41.2645H49.0957V43.373H37.3329V47.1832H49.0957V49.363H37.3329V56.5469H32.5029Z" fill="#F3EFF5"/>
<path id="path4" fill-rule="evenodd" clip-rule="evenodd" d="M3.10645 41.2649H7.87424V50.5434L7.87604 50.6719L7.88144 50.7979L7.89063 50.9222L7.90303 51.0443L7.91942 51.1645L7.93921 51.2828L7.9628 51.3988L7.98999 51.5133L8.02077 51.6253L8.05516 51.7354L8.09334 51.8436L8.13492 51.9497L8.1801 52.0537L8.22907 52.1558L8.28165 52.2558L8.33782 52.3539L8.3976 52.4499L8.46097 52.5441L8.52814 52.6362L8.5989 52.726L8.67347 52.8141L8.75143 52.9001L8.833 52.9844L8.91836 53.0664L9.00731 53.1464L9.09987 53.2245L9.19623 53.3007L9.29598 53.3745L9.39953 53.4466L9.50688 53.517L9.61763 53.585L9.73198 53.6513L9.85012 53.7149L9.97187 53.7767L10.0972 53.8365L10.226 53.8942L10.3585 53.95L10.4944 54.0036L10.634 54.055L10.7771 54.1049L10.9238 54.1523L11.074 54.1979L11.2279 54.2417L11.3854 54.283L11.5463 54.3224L11.7109 54.36L11.8792 54.3956L12.0509 54.429L12.2262 54.4604L12.4049 54.4896L12.5875 54.5169L12.7734 54.5423L12.9631 54.5657L13.1562 54.5869L13.3529 54.6063L13.5532 54.6235L13.7571 54.6387L13.9646 54.6517L14.1757 54.6629L14.3902 54.6719L14.6085 54.6789L14.83 54.6841L15.0553 54.6873L15.2842 54.6883L15.5127 54.6873L15.7374 54.6841L15.9585 54.6789L16.1758 54.6719L16.3901 54.6629L16.6004 54.6517L16.8073 54.6387L17.0104 54.6235L17.2101 54.6063L17.4064 54.5869L17.5989 54.5657L17.7879 54.5423L17.9736 54.5169L18.1553 54.4896L18.3336 54.4604L18.5083 54.429L18.6796 54.3956L18.8474 54.36L19.0117 54.3224L19.1722 54.283L19.3291 54.2417L19.4827 54.1979L19.6326 54.1523L19.7791 54.1049L19.9221 54.055L20.0612 54.0036L20.1971 53.95L20.3293 53.8942L20.458 53.8365L20.5832 53.7767L20.7049 53.7149L20.8228 53.6513L20.9374 53.585L21.0483 53.517L21.1555 53.4466L21.259 53.3745L21.359 53.3007L21.4552 53.2245L21.5477 53.1464L21.6367 53.0664L21.722 52.9844L21.8038 52.9001L21.8818 52.8141L21.9561 52.726L22.0267 52.6362L22.0939 52.5441L22.1574 52.4499L22.2172 52.3539L22.2734 52.2558L22.3262 52.1558L22.3749 52.0537L22.4201 51.9497L22.4619 51.8436L22.4999 51.7354L22.5343 51.6253L22.565 51.5133L22.5922 51.3988L22.6158 51.2828L22.6356 51.1645L22.6518 51.0443L22.6646 50.9222L22.6736 50.7979L22.679 50.6719L22.6808 50.5434V41.2649H27.511V50.7749L27.508 50.9674L27.499 51.1563L27.4842 51.3426L27.4634 51.5257L27.4366 51.7056L27.404 51.8826L27.3656 52.0563L27.321 52.2274L27.2707 52.3953L27.2143 52.56L27.1519 52.7216L27.0836 52.8801L27.0094 53.036L26.9292 53.1886L26.8431 53.3381L26.7511 53.4846L26.6532 53.6284L26.5492 53.7685L26.4392 53.9058L26.3235 54.0402L26.2016 54.1713L26.0738 54.2998L25.9401 54.4248L25.8003 54.5469L25.6548 54.6661L25.5033 54.782L25.3456 54.895L25.1822 55.0049L25.0125 55.1117L24.8372 55.2154L24.6557 55.3166L24.4684 55.4141L24.2748 55.5087L24.0753 55.6004L23.87 55.689L23.6583 55.775L23.4408 55.8577L23.2171 55.9373L22.9874 56.0138L22.7518 56.0876L22.5101 56.158L22.2624 56.2259L22.0085 56.2903L21.7486 56.3521L21.4829 56.4107L21.2109 56.4664L20.9332 56.5192L20.6491 56.5688L20.3593 56.6152L20.0634 56.6589L19.7615 56.6995L19.4537 56.7369L19.1398 56.7713L18.8198 56.8029L18.4939 56.8319L18.1619 56.8573L17.824 56.8798L17.4802 56.8994L17.1304 56.9158L16.7745 56.9294L16.4127 56.94L16.0449 56.9474L15.671 56.9522L15.2912 56.9536L14.911 56.9522L14.5366 56.9474L14.1683 56.94L13.8061 56.9294L13.4501 56.9158L13.1 56.8994L12.756 56.8798L12.4179 56.8573L12.0861 56.8319L11.76 56.8033L11.4404 56.7717L11.1267 56.7369L10.8191 56.6995L10.5176 56.6589L10.222 56.6156L9.93249 56.5692L9.64922 56.5196L9.37195 56.4668L9.10067 56.4115L8.83559 56.3529L8.57651 56.2915L8.32343 56.2271L8.07655 56.1596L7.83586 56.0892L7.60097 56.0154L7.37227 55.9393L7.14977 55.8597L6.93327 55.7774L6.72297 55.6918L6.51867 55.6034L6.32056 55.5121L6.12825 55.4177L5.94233 55.3204L5.76202 55.2198L5.5877 55.1163L5.41937 55.0097L5.25685 54.9L5.10052 54.7872L4.94979 54.6711L4.80506 54.5525L4.66652 54.4302L4.53378 54.3052L4.40684 54.1773L4.2859 54.046L4.17075 53.9118L4.0616 53.7743L3.95845 53.6341L3.8609 53.4904L3.76954 53.3441L3.68418 53.1942L3.60461 53.0414L3.53085 52.8857L3.46308 52.7268L3.40111 52.5646L3.34513 52.3995L3.29496 52.2316L3.25098 52.0603L3.2126 51.8858L3.18021 51.7084L3.15362 51.5277L3.13303 51.3442L3.11824 51.1575L3.10944 50.9678L3.10645 50.7749V41.2649Z" fill="#F3EFF5"/>
<path id="path5" fill-rule="evenodd" clip-rule="evenodd" d="M3.05859 59.1528H98.9416V59.9746H3.05859V59.1528Z" fill="#F3EFF5"/>
<g id="Clip path group">
<mask id="mask0_375_424" style="mask-type:luminance" maskUnits="userSpaceOnUse" x="0" y="0" width="102" height="68">
<g id="clipPath7">
<path id="path7" d="M0 6.10352e-05H102V68H0V6.10352e-05Z" fill="white"/>
</g>
</mask>
<g mask="url(#mask0_375_424)">
<path id="path6" fill-rule="evenodd" clip-rule="evenodd" d="M96.6022 61.2179L97.1152 60.6354H97.7223L96.9339 61.2179H96.6022ZM98.2163 64.6623L97.7677 63.8545H96.2032L95.7444 64.6623H95.0691L96.9827 61.4022L98.8934 64.6623H98.2163ZM96.4401 63.4305H97.541L97.1366 62.7152C97.1136 62.6692 97.0886 62.6169 97.0638 62.5575C97.0388 62.4981 97.013 62.4326 96.9883 62.3592C96.9661 62.428 96.9439 62.4923 96.9191 62.5517C96.8951 62.6111 96.8703 62.6648 96.8455 62.7152L96.4401 63.4305ZM91.1667 64.6623V61.4022L93.6762 63.3193C93.7454 63.3735 93.8145 63.4313 93.8843 63.4927C93.9545 63.5538 94.0282 63.6234 94.1056 63.7012V61.5268H94.6997V64.7847L92.1387 62.8332C92.0705 62.7804 92.0042 62.725 91.9406 62.6664C91.876 62.6071 91.8154 62.5465 91.7581 62.4821V64.6623H91.1667ZM90.1166 64.6623L89.6678 63.8545H88.1034L87.6446 64.6623H86.9695L88.883 61.4022L90.7935 64.6623H90.1166ZM88.3402 63.4305H89.4413L89.0367 62.7152C89.0137 62.6692 88.9888 62.6169 88.964 62.5575C88.939 62.4981 88.9132 62.4326 88.8884 62.3592C88.8664 62.428 88.8442 62.4923 88.8192 62.5517C88.7952 62.6111 88.7705 62.6648 88.7457 62.7152L88.3402 63.4305ZM85.0126 63.2596V64.6623H84.4111V61.5268H85.3065C85.5693 61.5268 85.7736 61.5404 85.9184 61.5674C86.0629 61.5947 86.1862 61.6391 86.2896 61.7021C86.4119 61.7783 86.5059 61.8762 86.5733 61.996C86.6396 62.1159 86.6728 62.2466 86.6728 62.39C86.6728 62.6407 86.5963 62.8374 86.4435 62.9799C86.2904 63.122 86.0639 63.2076 85.7652 63.2362L87.1262 64.6623H86.4002L85.0856 63.2596H85.0126ZM85.0532 62.8632H85.1693C85.5092 62.8632 85.7351 62.8316 85.8464 62.7688C85.958 62.7058 86.0141 62.5947 86.0141 62.4346C86.0141 62.262 85.9542 62.1405 85.8344 62.0699C85.7147 61.9988 85.4928 61.9636 85.1693 61.9636H85.0532V62.8632ZM83.361 64.6623L82.9122 63.8545H81.3479L80.8889 64.6623H80.214L82.1273 61.4022L84.0378 64.6623H83.361ZM81.5846 63.4305H82.6857L82.2811 62.7152C82.2581 62.6692 82.2333 62.6169 82.2083 62.5575C82.1835 62.4981 82.1577 62.4326 82.1327 62.3592C82.1107 62.428 82.0885 62.4923 82.0636 62.5517C82.0398 62.6111 82.0148 62.6648 81.99 62.7152L81.5846 63.4305ZM78.7131 63.2548V64.6623H78.1114V61.5268H79.0833C79.3708 61.5268 79.5825 61.5388 79.719 61.5638C79.8546 61.5887 79.9733 61.6303 80.0737 61.6877C80.198 61.7599 80.2958 61.8586 80.3657 61.9812C80.4357 62.1049 80.4709 62.2408 80.4709 62.39C80.4709 62.5383 80.4357 62.675 80.3657 62.8008C80.2958 62.9269 80.198 63.0253 80.0737 63.0962C79.9733 63.1534 79.8546 63.1944 79.719 63.2186C79.5825 63.2424 79.3708 63.2548 79.0833 63.2548H78.9562H78.7131ZM78.7537 62.8374H78.9184C79.275 62.8374 79.5127 62.807 79.6315 62.7454C79.7502 62.684 79.8094 62.5759 79.8094 62.4202C79.8094 62.2526 79.7458 62.1351 79.6187 62.0671C79.4923 61.998 79.2585 61.9636 78.9184 61.9636H78.7537V62.8374ZM75.7071 63.1006C75.7071 63.3235 75.6543 63.5344 75.5492 63.7324C75.4434 63.9311 75.2905 64.1084 75.0888 64.2641C74.8851 64.4196 74.6558 64.539 74.4005 64.6213C74.1454 64.7041 73.8771 64.7459 73.5963 64.7459C73.3116 64.7459 73.0407 64.7041 72.7829 64.6205C72.524 64.5366 72.2965 64.4184 72.0984 64.2641C71.8965 64.1084 71.7435 63.9319 71.6396 63.7348C71.5354 63.5378 71.4829 63.3267 71.4829 63.1006C71.4829 62.8762 71.5354 62.6648 71.6396 62.4669C71.7435 62.2678 71.8965 62.0901 72.0984 61.9332C72.3001 61.7775 72.5284 61.6591 72.7839 61.578C73.0389 61.4966 73.3096 61.4556 73.5963 61.4556C73.8809 61.4556 74.1498 61.4966 74.4043 61.578C74.6594 61.6591 74.8869 61.7775 75.0888 61.9332C75.2905 62.0917 75.4434 62.2708 75.5492 62.4697C75.6543 62.6692 75.7071 62.8791 75.7071 63.1006ZM75.037 63.1006C75.037 62.9429 75.0002 62.7922 74.9275 62.6489C74.8547 62.5063 74.7505 62.3792 74.6134 62.2678C74.4807 62.1577 74.3259 62.0733 74.1508 62.0143C73.9749 61.9552 73.7908 61.925 73.5963 61.925C73.4018 61.925 73.2167 61.9544 73.0417 62.0128C72.8668 62.0715 72.7101 62.1561 72.5737 62.2678C72.4374 62.3776 72.3325 62.5041 72.2603 62.6465C72.1885 62.7898 72.1525 62.9413 72.1525 63.1006C72.1525 63.2596 72.1885 63.4095 72.2603 63.5512C72.3325 63.6922 72.4374 63.8187 72.5737 63.9299C72.7101 64.0416 72.8658 64.1268 73.0407 64.1849C73.2149 64.2435 73.4 64.2727 73.5963 64.2727C73.7888 64.2727 73.9721 64.2435 74.1454 64.1849C74.3185 64.1268 74.4753 64.0416 74.6134 63.9299C74.7505 63.8187 74.8547 63.6922 74.9275 63.5496C75.0002 63.4079 75.037 63.258 75.037 63.1006ZM67.5639 64.6623V61.5268H68.4299C68.9936 61.5268 69.3898 61.5494 69.6191 61.5939C69.8486 61.6391 70.0495 61.7145 70.2226 61.82C70.4511 61.9586 70.6245 62.1363 70.7424 62.3534C70.8599 62.5707 70.9191 62.8184 70.9191 63.0962C70.9191 63.3751 70.8599 63.6218 70.7424 63.8369C70.6245 64.0522 70.4511 64.2291 70.2226 64.3693C70.0495 64.4746 69.8532 64.55 69.6331 64.5954C69.4118 64.6397 69.0692 64.6623 68.603 64.6623H68.4299H67.5639ZM68.206 64.2017H68.7457C69.0426 64.2017 69.2655 64.1865 69.4138 64.1552C69.5619 64.1236 69.6911 64.07 69.8016 63.9962C69.951 63.8949 70.0623 63.7691 70.1369 63.6184C70.2114 63.4677 70.2494 63.2924 70.2494 63.0921C70.2494 62.8925 70.2114 62.7168 70.1369 62.5661C70.0623 62.4158 69.951 62.29 69.8016 62.1883C69.6903 62.1143 69.5555 62.0609 69.401 62.0295C69.2451 61.998 69.001 61.9828 68.6702 61.9828H68.4381H68.206V64.2017ZM63.2966 64.6623V61.5268H63.9385V64.2063H65.3749V64.6623H63.2966ZM62.2463 64.6623L61.7977 63.8545H60.2333L59.7745 64.6623H59.0992L61.0127 61.4022L62.9234 64.6623H62.2463ZM60.4701 63.4305H61.571L61.1666 62.7152C61.1434 62.6692 61.1186 62.6169 61.0939 62.5575C61.0689 62.4981 61.0431 62.4326 61.0181 62.3592C60.9963 62.428 60.9739 62.4923 60.9491 62.5517C60.9251 62.6111 60.9004 62.6648 60.8754 62.7152L60.4701 63.4305ZM57.1425 63.2596V64.6623H56.541V61.5268H57.4364C57.6988 61.5268 57.9035 61.5404 58.0481 61.5674C58.1926 61.5947 58.3161 61.6391 58.4193 61.7021C58.5418 61.7783 58.6358 61.8762 58.7032 61.996C58.7693 62.1159 58.8025 62.2466 58.8025 62.39C58.8025 62.6407 58.7262 62.8374 58.5734 62.9799C58.4203 63.122 58.1936 63.2076 57.8951 63.2362L59.2559 64.6623H58.5298L57.2155 63.2596H57.1425ZM57.1831 62.8632H57.299C57.6391 62.8632 57.8648 62.8316 57.9763 62.7688C58.0877 62.7058 58.144 62.5947 58.144 62.4346C58.144 62.262 58.0839 62.1405 57.9643 62.0699C57.8444 61.9988 57.6225 61.9636 57.299 61.9636H57.1831V62.8632ZM53.5993 64.6623V61.5268H55.8047V61.9594H54.2414V62.7454H55.8047V63.1928H54.2414V64.2063H55.8047V64.6623H53.5993ZM49.5078 64.6623V61.5268H50.3738C50.9378 61.5268 51.334 61.5494 51.5633 61.5939C51.7928 61.6391 51.9937 61.7145 52.1668 61.82C52.3951 61.9586 52.5684 62.1363 52.6864 62.3534C52.8041 62.5707 52.8631 62.8184 52.8631 63.0962C52.8631 63.3751 52.8041 63.6218 52.6864 63.8369C52.5684 64.0522 52.3951 64.2291 52.1668 64.3693C51.9937 64.4746 51.7974 64.55 51.5773 64.5954C51.356 64.6397 51.0133 64.6623 50.5471 64.6623H50.3738H49.5078ZM50.1499 64.2017H50.6899C50.9865 64.2017 51.2096 64.1865 51.3578 64.1552C51.5061 64.1236 51.6352 64.07 51.7456 63.9962C51.8949 63.8949 52.0065 63.7691 52.081 63.6184C52.1556 63.4677 52.1936 63.2924 52.1936 63.0921C52.1936 62.8925 52.1556 62.7168 52.081 62.5661C52.0065 62.4158 51.8949 62.29 51.7456 62.1883C51.6342 62.1143 51.4997 62.0609 51.345 62.0295C51.1892 61.998 50.945 61.9828 50.6143 61.9828H50.3822H50.1499V64.2017ZM46.5664 64.6623V61.5268H48.7718V61.9594H47.2085V62.7454H48.7718V63.1928H47.2085V64.2063H48.7718V64.6623H46.5664ZM43.6651 64.6623V61.5268H45.8707V61.9594H44.3074V62.741H45.8707V63.1884H44.3074V64.6623H43.6651ZM39.0553 64.6623V61.5268H41.2606V61.9594H39.6974V62.7454H41.2606V63.1928H39.6974V64.2063H41.2606V64.6623H39.0553ZM34.9639 64.6623V61.5268H35.8298C36.3937 61.5268 36.7899 61.5494 37.0192 61.5939C37.2487 61.6391 37.4494 61.7145 37.6225 61.82C37.851 61.9586 38.0243 62.1363 38.1423 62.3534C38.2602 62.5707 38.3192 62.8184 38.3192 63.0962C38.3192 63.3751 38.2602 63.6218 38.1423 63.8369C38.0243 64.0522 37.851 64.2291 37.6225 64.3693C37.4494 64.4746 37.2533 64.55 37.033 64.5954C36.8119 64.6397 36.4693 64.6623 36.0031 64.6623H35.8298H34.9639ZM35.6059 64.2017H36.1458C36.4427 64.2017 36.6656 64.1865 36.8137 64.1552C36.9622 64.1236 37.091 64.07 37.2015 63.9962C37.3508 63.8949 37.4624 63.7691 37.537 63.6184C37.6115 63.4677 37.6493 63.2924 37.6493 63.0921C37.6493 62.8925 37.6115 62.7168 37.537 62.5661C37.4624 62.4158 37.3508 62.29 37.2015 62.1883C37.0902 62.1143 36.9556 62.0609 36.8007 62.0295C36.6452 61.998 36.4009 61.9828 36.0702 61.9828H35.8381H35.6059V64.2017ZM33.9136 64.6623L33.465 63.8545H31.9006L31.4418 64.6623H30.7665L32.68 61.4022L34.5907 64.6623H33.9136ZM32.1375 63.4305H33.2383L32.8339 62.7152C32.8109 62.6692 32.786 62.6169 32.7612 62.5575C32.7362 62.4981 32.7104 62.4326 32.6854 62.3592C32.6634 62.428 32.6412 62.4923 32.6164 62.5517C32.5924 62.6111 32.5677 62.6648 32.5429 62.7152L32.1375 63.4305ZM27.3091 64.6623V61.5268H28.1751C28.7388 61.5268 29.135 61.5494 29.3643 61.5939C29.5938 61.6391 29.7947 61.7145 29.9679 61.82C30.1962 61.9586 30.3697 62.1363 30.4874 62.3534C30.6054 62.5707 30.6643 62.8184 30.6643 63.0962C30.6643 63.3751 30.6054 63.6218 30.4874 63.8369C30.3697 64.0522 30.1962 64.2291 29.9679 64.3693C29.7947 64.4746 29.5984 64.55 29.3783 64.5954C29.1572 64.6397 28.8144 64.6623 28.3482 64.6623H28.1751H27.3091ZM27.9512 64.2017H28.4911C28.7878 64.2017 29.0107 64.1865 29.1588 64.1552C29.3074 64.1236 29.4363 64.07 29.5469 63.9962C29.696 63.8949 29.8075 63.7691 29.8821 63.6184C29.9569 63.4677 29.9947 63.2924 29.9947 63.0921C29.9947 62.8925 29.9569 62.7168 29.8821 62.5661C29.8075 62.4158 29.696 62.29 29.5469 62.1883C29.4353 62.1143 29.3008 62.0609 29.146 62.0295C28.9905 61.998 28.7462 61.9828 28.4156 61.9828H28.1833H27.9512V64.2017ZM25.7438 61.5268H26.3859V64.6625H25.7438V61.5268ZM22.4725 64.0342L22.9847 63.8463C23.0335 63.9862 23.123 64.0928 23.2518 64.1662C23.3819 64.2399 23.5476 64.2763 23.7485 64.2763C23.9393 64.2763 24.0912 64.2341 24.2035 64.1498C24.3159 64.0658 24.3723 63.9535 24.3723 63.8119C24.3723 63.6278 24.1795 63.4633 23.7945 63.3193C23.7401 63.2982 23.6996 63.2822 23.67 63.2724C23.2352 63.1038 22.9451 62.9515 22.8004 62.8148C22.6558 62.679 22.5831 62.5115 22.5831 62.3146C22.5831 62.0589 22.6926 61.852 22.9109 61.6935C23.1292 61.5346 23.4157 61.4556 23.7705 61.4556C24.0616 61.4556 24.3059 61.5002 24.502 61.5895C24.6983 61.6787 24.8336 61.8074 24.9092 61.9742L24.407 62.1795C24.3279 62.0807 24.2413 62.009 24.1464 61.9636C24.0524 61.9176 23.9437 61.895 23.8213 61.895C23.649 61.895 23.5117 61.9308 23.4103 62.002C23.3079 62.0733 23.2574 62.1695 23.2574 62.2892C23.2574 62.4779 23.4803 62.6533 23.9273 62.8156C23.961 62.829 23.988 62.839 24.0072 62.8456C24.3978 62.9889 24.6659 63.1284 24.8125 63.2646C24.958 63.4013 25.0309 63.5714 25.0309 63.7757C25.0309 64.0724 24.913 64.3087 24.6771 64.4832C24.4412 64.6581 24.1234 64.7459 23.7218 64.7459C23.3855 64.7459 23.11 64.6843 22.8945 64.5616C22.6796 64.4386 22.5389 64.2633 22.4725 64.0342ZM20.2052 63.2596V64.6623H19.6037V61.5268H20.4992C20.7617 61.5268 20.9662 61.5404 21.111 61.5674C21.2555 61.5947 21.3788 61.6391 21.4822 61.7021C21.6047 61.7783 21.6987 61.8762 21.7659 61.996C21.8322 62.1159 21.8654 62.2466 21.8654 62.39C21.8654 62.6407 21.7888 62.8374 21.6359 62.9799C21.483 63.122 21.2565 63.2076 20.958 63.2362L22.3186 64.6623H21.5927L20.2781 63.2596H20.2052ZM20.2458 62.8632H20.3619C20.7018 62.8632 20.9276 62.8316 21.039 62.7688C21.1503 62.7058 21.2067 62.5947 21.2067 62.4346C21.2067 62.262 21.1467 62.1405 21.027 62.0699C20.9073 61.9988 20.6852 61.9636 20.3619 61.9636H20.2458V62.8632ZM16.662 64.6623V61.5268H18.8674V61.9594H17.3041V62.7454H18.8674V63.1928H17.3041V64.2063H18.8674V64.6623H16.662ZM14.4998 64.7847L12.7374 61.5268H13.4043L14.2897 63.1974C14.3413 63.2948 14.3847 63.3837 14.4187 63.4665C14.4528 63.548 14.4804 63.6266 14.4998 63.7012C14.5238 63.6218 14.5532 63.541 14.5892 63.4567C14.625 63.3719 14.6675 63.2858 14.7161 63.1974L15.5979 61.5268H16.262L14.4998 64.7847ZM11.6797 61.5268H12.3218V64.6625H11.6797V61.5268ZM7.22919 64.6623V61.4022L9.73862 63.3193C9.80779 63.3735 9.87676 63.4313 9.94693 63.4927C10.0169 63.5538 10.0907 63.6234 10.168 63.7012V61.5268H10.7622V64.7847L8.20114 62.8332C8.13297 62.7804 8.0666 62.725 8.00303 62.6664C7.93846 62.6071 7.87768 62.5465 7.82051 62.4821V64.6623H7.22919ZM3.1001 61.5268H3.7338V63.4305C3.7338 63.7136 3.81596 63.9257 3.98089 64.0682C4.14561 64.2099 4.3915 64.2809 4.71875 64.2809C5.04479 64.2809 5.28988 64.2099 5.45481 64.0682C5.61973 63.9257 5.70169 63.7136 5.70169 63.4305V61.5268H6.34399V63.4783C6.34399 63.9023 6.20926 64.2193 5.93938 64.43C5.66951 64.6405 5.2623 64.7459 4.71975 64.7459C4.176 64.7459 3.76979 64.6405 3.50171 64.4304C3.23364 64.2207 3.1001 63.9035 3.1001 63.4783V61.5268Z" fill="#F3EFF5"/>
</g>
</g>
<g id="Clip path group_2">
<mask id="mask1_375_424" style="mask-type:luminance" maskUnits="userSpaceOnUse" x="0" y="0" width="102" height="68">
<g id="clipPath9">
<path id="path9" d="M0 6.10352e-05H102V68H0V6.10352e-05Z" fill="white"/>
</g>
</mask>
<g mask="url(#mask1_375_424)">
<path id="path8" d="M5.56982 13.4252H8.03209V13.8682H5.56982V13.4252Z" fill="#F3EFF5"/>
</g>
</g>
<g id="Clip path group_3">
<mask id="mask2_375_424" style="mask-type:luminance" maskUnits="userSpaceOnUse" x="0" y="0" width="102" height="68">
<g id="clipPath11">
<path id="path11" d="M0 6.10352e-05H102V68H0V6.10352e-05Z" fill="white"/>
</g>
</mask>
<g mask="url(#mask2_375_424)">
<path id="path10" d="M96.3812 13.4252H93.9189V13.8682H96.3812V13.4252Z" fill="#F3EFF5"/>
</g>
</g>
<g id="Clip path group_4">
<mask id="mask3_375_424" style="mask-type:luminance" maskUnits="userSpaceOnUse" x="0" y="0" width="102" height="68">
<g id="clipPath13">
<path id="path13" d="M0 6.10352e-05H102V68H0V6.10352e-05Z" fill="white"/>
</g>
</mask>
<g mask="url(#mask3_375_424)">
<path id="path12" d="M5.56982 26.6236H8.03209V27.0664H5.56982V26.6236Z" fill="#F3EFF5"/>
</g>
</g>
<g id="Clip path group_5">
<mask id="mask4_375_424" style="mask-type:luminance" maskUnits="userSpaceOnUse" x="0" y="0" width="102" height="68">
<g id="clipPath15">
<path id="path15" d="M0 6.10352e-05H102V68H0V6.10352e-05Z" fill="white"/>
</g>
</mask>
<g mask="url(#mask4_375_424)">
<path id="path14" d="M96.3812 26.6236H93.9189V27.0664H96.3812V26.6236Z" fill="#F3EFF5"/>
</g>
</g>
<g id="Clip path group_6">
<mask id="mask5_375_424" style="mask-type:luminance" maskUnits="userSpaceOnUse" x="0" y="0" width="102" height="68">
<g id="clipPath17">
<path id="path17" d="M0 6.10352e-05H102V68H0V6.10352e-05Z" fill="white"/>
</g>
</mask>
<g mask="url(#mask5_375_424)">
<path id="path16" d="M9.80469 13.4252H12.2677V13.8682H9.80469V13.4252Z" fill="#F3EFF5"/>
</g>
</g>
<g id="Clip path group_7">
<mask id="mask6_375_424" style="mask-type:luminance" maskUnits="userSpaceOnUse" x="0" y="0" width="102" height="68">
<g id="clipPath19">
<path id="path19" d="M0 6.10352e-05H102V68H0V6.10352e-05Z" fill="white"/>
</g>
</mask>
<g mask="url(#mask6_375_424)">
<path id="path18" d="M92.146 13.4252H89.6831V13.8682H92.146V13.4252Z" fill="#F3EFF5"/>
</g>
</g>
<g id="Clip path group_8">
<mask id="mask7_375_424" style="mask-type:luminance" maskUnits="userSpaceOnUse" x="0" y="0" width="102" height="68">
<g id="clipPath21">
<path id="path21" d="M0 6.10352e-05H102V68H0V6.10352e-05Z" fill="white"/>
</g>
</mask>
<g mask="url(#mask7_375_424)">
<path id="path20" d="M9.80469 26.6236H12.2677V27.0664H9.80469V26.6236Z" fill="#F3EFF5"/>
</g>
</g>
<g id="Clip path group_9">
<mask id="mask8_375_424" style="mask-type:luminance" maskUnits="userSpaceOnUse" x="0" y="0" width="102" height="68">
<g id="clipPath23">
<path id="path23" d="M0 6.10352e-05H102V68H0V6.10352e-05Z" fill="white"/>
</g>
</mask>
<g mask="url(#mask8_375_424)">
<path id="path22" d="M92.146 26.6236H89.6831V27.0664H92.146V26.6236Z" fill="#F3EFF5"/>
</g>
</g>
<g id="Clip path group_10">
<mask id="mask9_375_424" style="mask-type:luminance" maskUnits="userSpaceOnUse" x="0" y="0" width="102" height="68">
<g id="clipPath25">
<path id="path25" d="M0 6.10352e-05H102V68H0V6.10352e-05Z" fill="white"/>
</g>
</mask>
<g mask="url(#mask9_375_424)">
<path id="path24" d="M14.04 13.4252H16.5025V13.8682H14.04V13.4252Z" fill="#F3EFF5"/>
</g>
</g>
<g id="Clip path group_11">
<mask id="mask10_375_424" style="mask-type:luminance" maskUnits="userSpaceOnUse" x="0" y="0" width="102" height="68">
<g id="clipPath27">
<path id="path27" d="M0 6.10352e-05H102V68H0V6.10352e-05Z" fill="white"/>
</g>
</mask>
<g mask="url(#mask10_375_424)">
<path id="path26" d="M87.9113 13.4252H85.4492V13.8682H87.9113V13.4252Z" fill="#F3EFF5"/>
</g>
</g>
<g id="Clip path group_12">
<mask id="mask11_375_424" style="mask-type:luminance" maskUnits="userSpaceOnUse" x="0" y="0" width="102" height="68">
<g id="clipPath29">
<path id="path29" d="M0 6.10352e-05H102V68H0V6.10352e-05Z" fill="white"/>
</g>
</mask>
<g mask="url(#mask11_375_424)">
<path id="path28" d="M14.04 26.6236H16.5025V27.0664H14.04V26.6236Z" fill="#F3EFF5"/>
</g>
</g>
<g id="Clip path group_13">
<mask id="mask12_375_424" style="mask-type:luminance" maskUnits="userSpaceOnUse" x="0" y="0" width="102" height="68">
<g id="clipPath31">
<path id="path31" d="M0 6.10352e-05H102V68H0V6.10352e-05Z" fill="white"/>
</g>
</mask>
<g mask="url(#mask12_375_424)">
<path id="path30" d="M87.9113 26.6236H85.4492V27.0664H87.9113V26.6236Z" fill="#F3EFF5"/>
</g>
</g>
<g id="Clip path group_14">
<mask id="mask13_375_424" style="mask-type:luminance" maskUnits="userSpaceOnUse" x="0" y="0" width="102" height="68">
<g id="clipPath33">
<path id="path33" d="M0 6.10352e-05H102V68H0V6.10352e-05Z" fill="white"/>
</g>
</mask>
<g mask="url(#mask13_375_424)">
<path id="path32" d="M18.2759 13.4252H20.7381V13.8682H18.2759V13.4252Z" fill="#F3EFF5"/>
</g>
</g>
<g id="Clip path group_15">
<mask id="mask14_375_424" style="mask-type:luminance" maskUnits="userSpaceOnUse" x="0" y="0" width="102" height="68">
<g id="clipPath35">
<path id="path35" d="M0 6.10352e-05H102V68H0V6.10352e-05Z" fill="white"/>
</g>
</mask>
<g mask="url(#mask14_375_424)">
<path id="path34" d="M83.6752 13.4252H81.2134V13.8682H83.6752V13.4252Z" fill="#F3EFF5"/>
</g>
</g>
<g id="Clip path group_16">
<mask id="mask15_375_424" style="mask-type:luminance" maskUnits="userSpaceOnUse" x="0" y="0" width="102" height="68">
<g id="clipPath37">
<path id="path37" d="M0 6.10352e-05H102V68H0V6.10352e-05Z" fill="white"/>
</g>
</mask>
<g mask="url(#mask15_375_424)">
<path id="path36" d="M18.2759 26.6236H20.7381V27.0664H18.2759V26.6236Z" fill="#F3EFF5"/>
</g>
</g>
<g id="Clip path group_17">
<mask id="mask16_375_424" style="mask-type:luminance" maskUnits="userSpaceOnUse" x="0" y="0" width="102" height="68">
<g id="clipPath39">
<path id="path39" d="M0 6.10352e-05H102V68H0V6.10352e-05Z" fill="white"/>
</g>
</mask>
<g mask="url(#mask16_375_424)">
<path id="path38" d="M83.6752 26.6236H81.2134V27.0664H83.6752V26.6236Z" fill="#F3EFF5"/>
</g>
</g>
<g id="Clip path group_18">
<mask id="mask17_375_424" style="mask-type:luminance" maskUnits="userSpaceOnUse" x="0" y="0" width="102" height="68">
<g id="clipPath41">
<path id="path41" d="M0 6.10352e-05H102V68H0V6.10352e-05Z" fill="white"/>
</g>
</mask>
<g mask="url(#mask17_375_424)">
<path id="path40" d="M22.5107 13.4252H25.0222V13.8682H22.5107V13.4252Z" fill="#F3EFF5"/>
</g>
</g>
<g id="Clip path group_19">
<mask id="mask18_375_424" style="mask-type:luminance" maskUnits="userSpaceOnUse" x="0" y="0" width="102" height="68">
<g id="clipPath43">
<path id="path43" d="M0 6.10352e-05H102V68H0V6.10352e-05Z" fill="white"/>
</g>
</mask>
<g mask="url(#mask18_375_424)">
<path id="path42" d="M79.44 13.4252H76.9292V13.8682H79.44V13.4252Z" fill="#F3EFF5"/>
</g>
</g>
<g id="Clip path group_20">
<mask id="mask19_375_424" style="mask-type:luminance" maskUnits="userSpaceOnUse" x="0" y="0" width="102" height="68">
<g id="clipPath45">
<path id="path45" d="M0 6.10352e-05H102V68H0V6.10352e-05Z" fill="white"/>
</g>
</mask>
<g mask="url(#mask19_375_424)">
<path id="path44" d="M22.5107 26.6236H25.0222V27.0664H22.5107V26.6236Z" fill="#F3EFF5"/>
</g>
</g>
<g id="Clip path group_21">
<mask id="mask20_375_424" style="mask-type:luminance" maskUnits="userSpaceOnUse" x="0" y="0" width="102" height="68">
<g id="clipPath47">
<path id="path47" d="M0 6.10352e-05H102V68H0V6.10352e-05Z" fill="white"/>
</g>
</mask>
<g mask="url(#mask20_375_424)">
<path id="path46" d="M79.44 26.6236H76.9292V27.0664H79.44V26.6236Z" fill="#F3EFF5"/>
</g>
</g>
<g id="Clip path group_22">
<mask id="mask21_375_424" style="mask-type:luminance" maskUnits="userSpaceOnUse" x="0" y="0" width="102" height="68">
<g id="clipPath49">
<path id="path49" d="M0 6.10352e-05H102V68H0V6.10352e-05Z" fill="white"/>
</g>
</mask>
<g mask="url(#mask21_375_424)">
<path id="path48" d="M26.7461 13.4252H29.2086V13.8682H26.7461V13.4252Z" fill="#F3EFF5"/>
</g>
</g>
<g id="Clip path group_23">
<mask id="mask22_375_424" style="mask-type:luminance" maskUnits="userSpaceOnUse" x="0" y="0" width="102" height="68">
<g id="clipPath51">
<path id="path51" d="M0 6.10352e-05H102V68H0V6.10352e-05Z" fill="white"/>
</g>
</mask>
<g mask="url(#mask22_375_424)">
<path id="path50" d="M75.2052 13.4252H72.7432V13.8682H75.2052V13.4252Z" fill="#F3EFF5"/>
</g>
</g>
<g id="Clip path group_24">
<mask id="mask23_375_424" style="mask-type:luminance" maskUnits="userSpaceOnUse" x="0" y="0" width="102" height="68">
<g id="clipPath53">
<path id="path53" d="M0 6.10352e-05H102V68H0V6.10352e-05Z" fill="white"/>
</g>
</mask>
<g mask="url(#mask23_375_424)">
<path id="path52" d="M26.7461 26.6236H29.2086V27.0664H26.7461V26.6236Z" fill="#F3EFF5"/>
</g>
</g>
<g id="Clip path group_25">
<mask id="mask24_375_424" style="mask-type:luminance" maskUnits="userSpaceOnUse" x="0" y="0" width="102" height="68">
<g id="clipPath55">
<path id="path55" d="M0 6.10352e-05H102V68H0V6.10352e-05Z" fill="white"/>
</g>
</mask>
<g mask="url(#mask24_375_424)">
<path id="path54" d="M75.2052 26.6236H72.7432V27.0664H75.2052V26.6236Z" fill="#F3EFF5"/>
</g>
</g>
<g id="Clip path group_26">
<mask id="mask25_375_424" style="mask-type:luminance" maskUnits="userSpaceOnUse" x="0" y="0" width="102" height="68">
<g id="clipPath57">
<path id="path57" d="M0 6.10352e-05H102V68H0V6.10352e-05Z" fill="white"/>
</g>
</mask>
<g mask="url(#mask25_375_424)">
<path id="path56" d="M52.2134 13.4741H54.9215V13.9175H52.2134V13.4741Z" fill="#F3EFF5"/>
</g>
</g>
<g id="Clip path group_27">
<mask id="mask26_375_424" style="mask-type:luminance" maskUnits="userSpaceOnUse" x="0" y="0" width="102" height="68">
<g id="clipPath59">
<path id="path59" d="M0 6.10352e-05H102V68H0V6.10352e-05Z" fill="white"/>
</g>
</mask>
<g mask="url(#mask26_375_424)">
<path id="path58" d="M52.7065 14.1148H54.4787V14.4595H52.7065V14.1148Z" fill="#F3EFF5"/>
</g>
</g>
<g id="Clip path group_28">
<mask id="mask27_375_424" style="mask-type:luminance" maskUnits="userSpaceOnUse" x="0" y="0" width="102" height="68">
<g id="clipPath61">
<path id="path61" d="M0 6.10352e-05H102V68H0V6.10352e-05Z" fill="white"/>
</g>
</mask>
<g mask="url(#mask27_375_424)">
<path id="path60" d="M34.8228 9.53448H67.1784V10.0269H34.8228V9.53448Z" fill="#F3EFF5"/>
</g>
</g>
<g id="Clip path group_29">
<mask id="mask28_375_424" style="mask-type:luminance" maskUnits="userSpaceOnUse" x="0" y="0" width="102" height="68">
<g id="clipPath63">
<path id="path63" d="M0 6.10352e-05H102V68H0V6.10352e-05Z" fill="white"/>
</g>
</mask>
<g mask="url(#mask28_375_424)">
<path id="path62" d="M26.5985 10.6184H30.3908L26.5985 9.28822L17.4381 6.0877H17.3896L4.38778 10.6184H26.5985ZM26.5985 12.8342H29.7998V11.1104H26.5985H4.97891V12.8342H26.5985ZM35.5616 11.1104H30.2918V12.8342H35.5616V11.1104ZM66.7345 8.50098L51.0742 2.98454L51.025 3.03411L35.2661 8.50098H66.7345ZM50.9842 12.8342V12.8326H66.0039V11.1104H36.0052V12.8342H50.9842ZM51.025 13.3247V13.3271H26.5985H3.05859V12.8342H4.53591V11.1104H3.05859V10.6184L12.0706 7.46666H3.05859V7.02307H13.3512L17.3896 5.59513H17.4381L21.4767 7.02307H26.5985H32.9024H38.2209L51.025 2.49256H51.0742L63.8289 7.02307H75.4027H80.4742L84.5629 5.54595L88.5998 7.02307H98.8933V7.46666H89.9302L98.8933 10.6184V11.1104H97.4659V12.8342H98.9416V13.3271H84.5629L51.025 13.3247ZM72.1978 11.106V12.83L84.5629 12.8342H96.9722V11.1104L72.1978 11.106ZM71.6059 10.6138L97.5137 10.6184L84.5629 6.0877L71.6059 10.6138ZM70.2277 10.6138L79.145 7.46666H65.1091L68.1129 8.50098V8.99315H33.8871V8.50098L36.8913 7.46666H32.9024H26.5985H22.8067L26.5985 8.79585L31.7691 10.6184L70.2277 10.6138ZM71.7052 12.83V11.106L66.4483 11.1104V12.8326L71.7052 12.83Z" fill="#F3EFF5"/>
</g>
</g>
<g id="Clip path group_30">
<mask id="mask29_375_424" style="mask-type:luminance" maskUnits="userSpaceOnUse" x="0" y="0" width="102" height="68">
<g id="clipPath65">
<path id="path65" d="M0 6.10352e-05H102V68H0V6.10352e-05Z" fill="white"/>
</g>
</mask>
<g mask="url(#mask29_375_424)">
<path id="path64" d="M36.8652 13.4731H39.5736V13.9165H36.8652V13.4731Z" fill="#F3EFF5"/>
</g>
</g>
<g id="Clip path group_31">
<mask id="mask30_375_424" style="mask-type:luminance" maskUnits="userSpaceOnUse" x="0" y="0" width="102" height="68">
<g id="clipPath67">
<path id="path67" d="M0 6.10352e-05H102V68H0V6.10352e-05Z" fill="white"/>
</g>
</mask>
<g mask="url(#mask30_375_424)">
<path id="path66" d="M37.3086 14.1137H39.1309V14.4585H37.3086V14.1137Z" fill="#F3EFF5"/>
</g>
</g>
<g id="Clip path group_32">
<mask id="mask31_375_424" style="mask-type:luminance" maskUnits="userSpaceOnUse" x="0" y="0" width="102" height="68">
<g id="clipPath69">
<path id="path69" d="M0 6.10352e-05H102V68H0V6.10352e-05Z" fill="white"/>
</g>
</mask>
<g mask="url(#mask31_375_424)">
<path id="path68" d="M52.1987 13.4731H54.9077V13.9165H52.1987V13.4731Z" fill="#F3EFF5"/>
</g>
</g>
<g id="Clip path group_33">
<mask id="mask32_375_424" style="mask-type:luminance" maskUnits="userSpaceOnUse" x="0" y="0" width="102" height="68">
<g id="clipPath71">
<path id="path71" d="M0 6.10352e-05H102V68H0V6.10352e-05Z" fill="white"/>
</g>
</mask>
<g mask="url(#mask32_375_424)">
<path id="path70" d="M52.6426 14.1137H54.4649V14.4585H52.6426V14.1137Z" fill="#F3EFF5"/>
</g>
</g>
<g id="Clip path group_34">
<mask id="mask33_375_424" style="mask-type:luminance" maskUnits="userSpaceOnUse" x="0" y="0" width="102" height="68">
<g id="clipPath73">
<path id="path73" d="M0 6.10352e-05H102V68H0V6.10352e-05Z" fill="white"/>
</g>
</mask>
<g mask="url(#mask33_375_424)">
<path id="path72" d="M57.3594 13.4731H60.0681V13.9165H57.3594V13.4731Z" fill="#F3EFF5"/>
</g>
</g>
<g id="Clip path group_35">
<mask id="mask34_375_424" style="mask-type:luminance" maskUnits="userSpaceOnUse" x="0" y="0" width="102" height="68">
<g id="clipPath75">
<path id="path75" d="M0 6.10352e-05H102V68H0V6.10352e-05Z" fill="white"/>
</g>
</mask>
<g mask="url(#mask34_375_424)">
<path id="path74" d="M57.8027 14.1137H59.6243V14.4585H57.8027V14.1137Z" fill="#F3EFF5"/>
</g>
</g>
<g id="Clip path group_36">
<mask id="mask35_375_424" style="mask-type:luminance" maskUnits="userSpaceOnUse" x="0" y="0" width="102" height="68">
<g id="clipPath77">
<path id="path77" d="M0 6.10352e-05H102V68H0V6.10352e-05Z" fill="white"/>
</g>
</mask>
<g mask="url(#mask35_375_424)">
<path id="path76" d="M47.1128 13.5109H49.7716V13.9541H47.1128V13.5109Z" fill="#F3EFF5"/>
</g>
</g>
<g id="Clip path group_37">
<mask id="mask36_375_424" style="mask-type:luminance" maskUnits="userSpaceOnUse" x="0" y="0" width="102" height="68">
<g id="clipPath79">
<path id="path79" d="M0 6.10352e-05H102V68H0V6.10352e-05Z" fill="white"/>
</g>
</mask>
<g mask="url(#mask36_375_424)">
<path id="path78" d="M47.5552 14.1515H49.328V14.4961H47.5552V14.1515Z" fill="#F3EFF5"/>
</g>
</g>
<g id="Clip path group_38">
<mask id="mask37_375_424" style="mask-type:luminance" maskUnits="userSpaceOnUse" x="0" y="0" width="102" height="68">
<g id="clipPath81">
<path id="path81" d="M0 6.10352e-05H102V68H0V6.10352e-05Z" fill="white"/>
</g>
</mask>
<g mask="url(#mask37_375_424)">
<path id="path80" d="M41.9863 13.4894H44.6453V13.9326H41.9863V13.4894Z" fill="#F3EFF5"/>
</g>
</g>
<g id="Clip path group_39">
<mask id="mask38_375_424" style="mask-type:luminance" maskUnits="userSpaceOnUse" x="0" y="0" width="102" height="68">
<g id="clipPath83">
<path id="path83" d="M0 6.10352e-05H102V68H0V6.10352e-05Z" fill="white"/>
</g>
</mask>
<g mask="url(#mask38_375_424)">
<path id="path82" d="M42.4292 14.129H44.2018V14.4736H42.4292V14.129Z" fill="#F3EFF5"/>
</g>
</g>
<g id="Clip path group_40">
<mask id="mask39_375_424" style="mask-type:luminance" maskUnits="userSpaceOnUse" x="0" y="0" width="102" height="68">
<g id="clipPath85">
<path id="path85" d="M0 6.10352e-05H102V68H0V6.10352e-05Z" fill="white"/>
</g>
</mask>
<g mask="url(#mask39_375_424)">
<path id="path84" d="M62.4751 13.4731H65.1341V13.9165H62.4751V13.4731Z" fill="#F3EFF5"/>
</g>
</g>
<g id="Clip path group_41">
<mask id="mask40_375_424" style="mask-type:luminance" maskUnits="userSpaceOnUse" x="0" y="0" width="102" height="68">
<g id="clipPath87">
<path id="path87" d="M0 6.10352e-05H102V68H0V6.10352e-05Z" fill="white"/>
</g>
</mask>
<g mask="url(#mask40_375_424)">
<path id="path86" d="M62.918 14.1137H64.6905V14.4585H62.918V14.1137Z" fill="#F3EFF5"/>
</g>
</g>
<g id="Clip path group_42">
<mask id="mask41_375_424" style="mask-type:luminance" maskUnits="userSpaceOnUse" x="0" y="0" width="102" height="68">
<g id="clipPath89">
<path id="path89" d="M0 6.10352e-05H102V68H0V6.10352e-05Z" fill="white"/>
</g>
</mask>
<g mask="url(#mask41_375_424)">
<path id="path88" d="M36.502 31.2515H39.9488V31.6953H36.502V31.2515Z" fill="#F3EFF5"/>
</g>
</g>
<g id="Clip path group_43">
<mask id="mask42_375_424" style="mask-type:luminance" maskUnits="userSpaceOnUse" x="0" y="0" width="102" height="68">
<g id="clipPath91">
<path id="path91" d="M0 6.10352e-05H102V68H0V6.10352e-05Z" fill="white"/>
</g>
</mask>
<g mask="url(#mask42_375_424)">
<path id="path90" d="M51.8354 31.2515H55.2821V31.6953H51.8354V31.2515Z" fill="#F3EFF5"/>
</g>
</g>
<g id="Clip path group_44">
<mask id="mask43_375_424" style="mask-type:luminance" maskUnits="userSpaceOnUse" x="0" y="0" width="102" height="68">
<g id="clipPath93">
<path id="path93" d="M0 6.10352e-05H102V68H0V6.10352e-05Z" fill="white"/>
</g>
</mask>
<g mask="url(#mask43_375_424)">
<path id="path92" d="M56.9951 31.2515H60.4419V31.6953H56.9951V31.2515Z" fill="#F3EFF5"/>
</g>
</g>
<g id="Clip path group_45">
<mask id="mask44_375_424" style="mask-type:luminance" maskUnits="userSpaceOnUse" x="0" y="0" width="102" height="68">
<g id="clipPath95">
<path id="path95" d="M0 6.10352e-05H102V68H0V6.10352e-05Z" fill="white"/>
</g>
</mask>
<g mask="url(#mask44_375_424)">
<path id="path94" d="M46.7183 31.2888H50.1659V31.7324H46.7183V31.2888Z" fill="#F3EFF5"/>
</g>
</g>
<g id="Clip path group_46">
<mask id="mask45_375_424" style="mask-type:luminance" maskUnits="userSpaceOnUse" x="0" y="0" width="102" height="68">
<g id="clipPath97">
<path id="path97" d="M0 6.10352e-05H102V68H0V6.10352e-05Z" fill="white"/>
</g>
</mask>
<g mask="url(#mask45_375_424)">
<path id="path96" d="M41.5913 31.2675H45.0391V31.7109H41.5913V31.2675Z" fill="#F3EFF5"/>
</g>
</g>
<g id="Clip path group_47">
<mask id="mask46_375_424" style="mask-type:luminance" maskUnits="userSpaceOnUse" x="0" y="0" width="102" height="68">
<g id="clipPath99">
<path id="path99" d="M0 6.10352e-05H102V68H0V6.10352e-05Z" fill="white"/>
</g>
</mask>
<g mask="url(#mask46_375_424)">
<path id="path98" d="M62.0801 31.2517H65.5273V31.6953H62.0801V31.2517Z" fill="#F3EFF5"/>
</g>
</g>
<g id="Clip path group_48">
<mask id="mask47_375_424" style="mask-type:luminance" maskUnits="userSpaceOnUse" x="0" y="0" width="102" height="68">
<g id="clipPath101">
<path id="path101" d="M0 6.10352e-05H102V68H0V6.10352e-05Z" fill="white"/>
</g>
</mask>
<g mask="url(#mask47_375_424)">
<path id="path100" fill-rule="evenodd" clip-rule="evenodd" d="M59.5297 20.4753H62.9929V27.1658H59.5297V20.4753ZM54.3694 20.4753H57.8326V27.1658H54.3694V20.4753ZM49.2582 20.4753H52.7214V27.1658H49.2582V20.4753ZM44.1432 20.4753H47.5952V27.1658H44.1432V20.4753ZM39.0361 20.4753H42.5097V27.1658H39.0361V20.4753ZM63.4862 15.5084H64.0836V30.3645H63.4862V15.5084ZM58.3258 15.5084H59.0367V30.3645H58.3258V15.5084ZM53.2148 15.5084H53.8761V30.3645H53.2148V15.5084ZM48.0886 15.5084H48.765V30.3645H48.0886V15.5084ZM42.9863 15.5084H43.6388V30.3645H42.9863V15.5084ZM37.8955 15.5084H38.543V30.3645H37.8955V15.5084ZM6.30909 14.5089H7.29323V26.0327H6.30909V14.5089ZM11.5289 26.0327H10.5439V14.5089H11.5289V26.0327ZM15.7635 26.0327H14.7792V14.5089H15.7635V26.0327ZM19.0144 14.5089H19.9988V26.0327H19.0144V14.5089ZM24.2346 26.0327H23.2499V14.5089H24.2346V26.0327ZM28.4694 26.0327H27.4851V14.5089H28.4694V26.0327ZM73.4814 26.0327H74.466V14.5089H73.4814V26.0327ZM78.2086 14.5089H77.7164V26.0327H78.2086H78.7018V14.5089H78.2086ZM81.9517 26.0327H82.9372V14.5089H81.9517V26.0327ZM86.6799 14.5089H86.1873V26.0327H86.6799H87.1723V14.5089H86.6799ZM95.1502 26.0327H94.658V14.5089H95.1502H95.643V26.0327H95.1502ZM90.9147 14.5089H90.4226V26.0327H90.9147H91.4069V14.5089H90.9147ZM71.7092 38.049H30.2918V36.9659H71.7092V38.049ZM70.2307 36.4731H31.7689V35.4388H70.2307V36.4731ZM64.5767 27.658V30.8075H62.9929V27.6614H59.5297V30.8075H57.8326V27.6614H54.3694V30.8075H52.7214V27.6614H49.2582V30.8075H47.5952V27.6614H44.1432V30.8075H42.5097V27.6614H39.0361V30.8075H37.4023V27.658H30.2918V36.4731H31.3265V34.9468H32.8526V33.4691H35.9622H69.1474V34.9468H70.7227V36.4731H71.7092V27.658H64.5767ZM37.4023 14.9833H39.0361V20.0323H42.5097V14.9833H44.1432V20.0323H47.5952V14.9833H49.2582V20.0323H52.7214V14.9833H54.3694V20.0323H57.8326V14.9833H59.5297V20.0323H62.9929V14.9833H64.5767V20.0245V20.0279H72.9888V14.0165H74.9089V20.0245H77.2235V14.0165H78.2086H79.145V20.0245H81.4589V14.0165H83.4292V20.0245H85.7439V14.0165H86.6799H87.6155V20.0245H89.93V14.0165H90.9147H91.8995V20.0245H94.2144V14.0165H95.1502H96.1361V20.0245H98.8931V20.4679H96.1361V26.4757H95.1502H94.2144V20.4679H91.8995V26.4757H90.9147H89.93V20.4679H87.6155V26.4757H86.6799H85.7439V20.4679H83.4292V26.4757H81.4589V20.4679H79.145V26.4757H78.2086H77.2235V20.4679H74.9089V26.4757H72.9888V20.4679H64.5767V20.4753V27.1656H98.8931V27.658H72.1512V30.2186H98.8931V30.6622H72.1512V33.4691H98.8931V33.9123H72.1512V36.4731H98.8931V36.9659H72.1512V38.049H98.8929V38.8364H3.05859V38.049H29.7996V36.9659H3.05859V36.4731H29.7996V33.9123H3.05859V33.4691H29.7996V30.6622H3.05859V30.2186H29.7996V27.658H3.05859V27.1656H37.4023V20.4681L28.9626 20.4679V26.4757H27.0415V20.4679H24.7272V26.4757H22.8069V20.4679H20.4913V26.4757H18.571V20.4679H16.2073V26.4757H14.3354V20.4679H12.0212V26.4757H10.0512V20.4679H7.73743V26.4757H5.81572V20.4679H3.05859V20.0245H5.81572V14.0165H7.73743V20.0245H10.0512V14.0165H12.0212V20.0245H14.3354V14.0165H16.2073V20.0245H18.571V14.0165H20.4913V20.0245H22.8069V14.0165H24.7272V20.0245H27.0415V14.0165H28.9626V20.0245H37.4023V14.9833ZM68.705 34.9468H33.2964V33.9123H68.705V34.9468Z" fill="#F3EFF5"/>
</g>
</g>
<g id="Clip path group_49">
<mask id="mask48_375_424" style="mask-type:luminance" maskUnits="userSpaceOnUse" x="0" y="0" width="102" height="68">
<g id="clipPath103">
<path id="path103" d="M0 6.10352e-05H102V68H0V6.10352e-05Z" fill="white"/>
</g>
</mask>
<g mask="url(#mask48_375_424)">
<path id="path102" fill-rule="evenodd" clip-rule="evenodd" d="M36.5286 33.0258H39.9213V32.5609H36.5286V33.0258ZM36.0854 32.1175H40.3647V33.469L36.0854 33.4692V32.1175Z" fill="#F3EFF5"/>
</g>
</g>
<g id="Clip path group_50">
<mask id="mask49_375_424" style="mask-type:luminance" maskUnits="userSpaceOnUse" x="0" y="0" width="102" height="68">
<g id="clipPath105">
<path id="path105" d="M0 6.10352e-05H102V68H0V6.10352e-05Z" fill="white"/>
</g>
</mask>
<g mask="url(#mask49_375_424)">
<path id="path104" fill-rule="evenodd" clip-rule="evenodd" d="M41.619 33.0258H45.0118V32.5609H41.619V33.0258ZM41.1758 32.1175H45.455V33.469L41.1758 33.4692V32.1175Z" fill="#F3EFF5"/>
</g>
</g>
<g id="Clip path group_51">
<mask id="mask50_375_424" style="mask-type:luminance" maskUnits="userSpaceOnUse" x="0" y="0" width="102" height="68">
<g id="clipPath107">
<path id="path107" d="M0 6.10352e-05H102V68H0V6.10352e-05Z" fill="white"/>
</g>
</mask>
<g mask="url(#mask50_375_424)">
<path id="path106" fill-rule="evenodd" clip-rule="evenodd" d="M46.7454 33.0364H50.1381V32.5716H46.7454V33.0364ZM46.3022 32.1284H50.5815V33.4798L46.3022 33.48V32.1284Z" fill="#F3EFF5"/>
</g>
</g>
<g id="Clip path group_52">
<mask id="mask51_375_424" style="mask-type:luminance" maskUnits="userSpaceOnUse" x="0" y="0" width="102" height="68">
<g id="clipPath109">
<path id="path109" d="M0 6.10352e-05H102V68H0V6.10352e-05Z" fill="white"/>
</g>
</mask>
<g mask="url(#mask51_375_424)">
<path id="path108" fill-rule="evenodd" clip-rule="evenodd" d="M51.8623 33.0258H55.255V32.5609H51.8623V33.0258ZM51.4189 32.1175H55.6982V33.469L51.4189 33.4692V32.1175Z" fill="#F3EFF5"/>
</g>
</g>
<g id="Clip path group_53">
<mask id="mask52_375_424" style="mask-type:luminance" maskUnits="userSpaceOnUse" x="0" y="0" width="102" height="68">
<g id="clipPath111">
<path id="path111" d="M0 6.10352e-05H102V68H0V6.10352e-05Z" fill="white"/>
</g>
</mask>
<g mask="url(#mask52_375_424)">
<path id="path110" fill-rule="evenodd" clip-rule="evenodd" d="M57.0228 33.0258H60.4156V32.5609H57.0228V33.0258ZM56.5796 32.1175H60.8588V33.469L56.5796 33.4692V32.1175Z" fill="#F3EFF5"/>
</g>
</g>
<g id="Clip path group_54">
<mask id="mask53_375_424" style="mask-type:luminance" maskUnits="userSpaceOnUse" x="0" y="0" width="102" height="68">
<g id="clipPath113">
<path id="path113" d="M0 6.10352e-05H102V68H0V6.10352e-05Z" fill="white"/>
</g>
</mask>
<g mask="url(#mask53_375_424)">
<path id="path112" fill-rule="evenodd" clip-rule="evenodd" d="M62.107 33.0258H65.4998V32.5609H62.107V33.0258ZM61.6636 32.1175H65.9428V33.469L61.6636 33.4692V32.1175Z" fill="#F3EFF5"/>
</g>
</g>
</g>
</svg>
